<?xml version="1.0" encoding="UTF-8" standalone="no"?><!DOCTYPE svg PUBLIC "-//W3C//DTD SVG 1.1//EN" "http://www.w3.org/Graphics/SVG/1.1/DTD/svg11.dtd"><svg width="100%" height="100%" viewBox="0 0 2167 734" version="1.1" xmlns="http://www.w3.org/2000/svg" xmlns:xlink="http://www.w3.org/1999/xlink" xml:space="preserve" xmlns:serif="http://www.serif.com/" style="fill-rule:evenodd;clip-rule:evenodd;stroke-linejoin:round;stroke-miterlimit:2;"><rect id="Artboard2" x="0" y="0" width="2166.67" height="733.333" style="fill:none;"/><path d="M152.937,124.562l316.667,0l0,52.584l-158.333,105.75l53.208,-0c30.417,-0 55.5,11.625 75.375,34.833c19.833,23.208 29.75,46.875 29.75,70.917l0,105.125c0,29.125 -10.333,54.041 -31.042,74.75c-20.708,20.708 -45.375,31.041 -74.083,31.041l-105.75,0c-62.083,0 -97.333,-35.25 -105.75,-105.75l53.208,0c2.542,35.459 20.042,53.209 52.584,53.209l52.583,-0c14.792,-0 27.333,-5.167 37.667,-15.5c10.333,-10.334 15.5,-22.917 15.5,-37.667l-0,-105.125c-0,-8.458 -4.417,-19.417 -13.292,-32.917c-8.875,-13.5 -22.167,-20.25 -39.917,-20.25l-105.125,0l0,-52.583l158.334,-105.75l-211.584,0l0,-52.667Z" style="fill-rule:nonzero;"/><path d="M617.171,91.812l6.621,0c26.153,0 50.132,14.417 71.934,43.209c4.919,10.083 7.378,17.75 7.378,23.041c0,19.209 -10.357,39.875 -31.072,61.959c-21.235,23.541 -31.876,48.958 -31.876,76.333c4.351,163.25 6.526,254.708 6.526,274.417l0.804,3.583c0,12.958 -7.662,23.042 -22.89,30.25c-4.919,2.417 -10.358,3.583 -16.364,3.583c-18.539,0 -31.593,-9.125 -39.254,-27.375l-1.656,-7.208l9.79,-297.458c0,-14.417 -3.831,-26.417 -11.445,-36c-6.006,-10.542 -9.553,-15.834 -10.641,-15.834c-3.263,0.959 -6.007,1.459 -8.182,1.459c-10.925,-22.084 -16.364,-34.084 -16.364,-36c0.52,-0.459 1.372,-0.709 2.459,-0.709c-3.263,-14.875 -4.918,-25.458 -4.918,-31.708c-0,-20.167 9.79,-36.25 29.417,-48.25c1.655,0 6.243,10.083 13.904,30.25l13.101,30.958l33.532,0c11.445,-10.541 18.539,-17.541 21.235,-20.875c-15.797,-37.458 -23.695,-56.416 -23.695,-56.916l1.656,-0.709Zm-26.864,475.334l0,2.166c2.176,10.084 7.899,15.125 17.168,15.125c12.533,-1.458 18.823,-6.5 18.823,-15.125c0,-9.125 -6.526,-14.625 -19.627,-16.583c-10.925,1.917 -16.364,6.75 -16.364,14.417Z" style="fill-rule:nonzero;"/><g><path d="M1040.52,599.562l-105.125,0l-0,-52.583c-4.209,35.042 -21.959,52.583 -53.209,52.583l-52.583,0c-28.708,0 -53.5,-10.333 -74.417,-31.041c-20.916,-20.667 -31.333,-45.584 -31.333,-74.75l0,-158.334c0,-28.708 10.458,-53.416 31.333,-74.083c20.917,-20.667 45.709,-31.042 74.417,-31.042l105.75,0l0,-105.75l105.125,0l0,475l0.042,0Zm-105.125,-316.666l-53.209,-0c-14.375,-0 -26.708,5.166 -37.041,15.5c-10.334,10.333 -15.5,22.708 -15.5,37.041l-0,158.334c-0,14.375 5.166,26.833 15.5,37.375c10.333,10.541 22.708,15.833 37.041,15.833c14.334,0 27.334,-5.292 37.667,-15.833c10.333,-10.542 15.5,-23 15.5,-37.375l0,-210.917l0.042,0.042Z" style="fill-rule:nonzero;"/><path d="M1426.85,599.562l-105.125,0l0,-52.583c-4.208,35.042 -21.958,52.583 -53.208,52.583l-52.584,0c-28.708,0 -53.5,-10.333 -74.416,-31.041c-20.917,-20.667 -31.334,-45.584 -31.334,-74.75l0,-158.334c0,-28.708 10.459,-53.416 31.334,-74.083c20.916,-20.667 45.708,-31.042 74.416,-31.042l105.75,0l0,-105.75l105.125,0l0,475l0.042,0Zm-105.125,-316.666l-53.208,-0c-14.375,-0 -26.709,5.166 -37.042,15.5c-10.333,10.333 -15.5,22.708 -15.5,37.041l0,158.334c0,14.375 5.167,26.833 15.5,37.375c10.333,10.541 22.708,15.833 37.042,15.833c14.333,0 27.333,-5.292 37.666,-15.833c10.334,-10.542 15.5,-23 15.5,-37.375l0,-210.917l0.042,0.042Z" style="fill-rule:nonzero;"/></g><path d="M1733.15,110.062l0.708,0c4.792,0 17.75,4.584 38.875,13.667c0,0.5 0.25,0.708 0.708,0.708c3.834,-1.916 8.625,-2.875 14.417,-2.875c15.375,0 26.417,9.375 33.125,28.084c51.375,171.875 78.958,263.375 82.833,274.416c6.25,12.959 10.334,19.917 12.25,20.875l7.209,0c-0,-2.875 0.25,-4.333 0.708,-4.333c22.583,2.875 33.833,5.042 33.833,6.5c-0.5,4.792 -0.708,8.875 -0.708,12.25c0,0.958 -8.417,2.167 -25.208,3.583c6.708,6.25 19.916,16.834 39.625,31.709c16.791,15.375 25.208,31.208 25.208,47.541c0,23.542 -11.292,44.917 -33.833,64.084c-8.625,5.291 -15.625,7.916 -20.875,7.916c-0,-4.333 0.708,-24.5 2.166,-60.5c-14.416,-9.125 -22.083,-13.666 -23.041,-13.666l-28.792,7.208c-1.458,44.167 -2.625,66.25 -3.583,66.25c-13.917,-4.792 -24.5,-12.5 -31.709,-23.042c-8.625,-14.875 -12.958,-30.5 -12.958,-46.833l-0.708,0c-0.5,0 -1.459,-0.458 -2.875,-1.458c0.458,-0.959 0.708,-1.667 0.708,-2.167l2.167,-35.292c0.958,-0.958 2.166,-1.458 3.583,-1.458l4.333,0c1.459,0 3.334,-11.042 5.75,-33.125l0,-5.75l-0.708,-4.333c-4.333,-0.459 -7.667,-0.709 -10.083,-0.709c-19.709,0 -50.417,-0.25 -92.167,-0.708l0,0.708c-0.958,12.5 -3.125,19.459 -6.5,20.875l-1.458,0c-6.25,-6.708 -12.25,-10.083 -18,-10.083c-0,2.875 -28.334,5.042 -85,6.5c-5.292,13.917 -7.917,21.375 -7.917,22.333c4.333,3.375 6.5,7.917 6.5,13.667c0,2.875 -3.125,12.708 -9.375,29.542l0.708,-0l2.875,2.166c-5.75,15.375 -8.625,24 -8.625,25.917l0,2.167c0,6.75 9.125,11.041 27.375,12.958l2.167,0c14.875,0 28.542,-6 41.042,-18c5.75,1.458 8.625,2.625 8.625,3.583c-4.792,12.959 -13.667,23.292 -26.667,30.959c-11.542,5.75 -22.792,8.625 -33.833,8.625l-7.209,-0c-12.958,-0 -38.666,-8.167 -77.083,-24.5c-9.625,-2.417 -14.417,-4.334 -14.417,-5.75c2.417,-6.25 3.584,-10.542 3.584,-12.959c-7.209,-5.291 -15.125,-7.916 -23.75,-7.916c-5.292,2.875 -9.125,4.333 -11.542,4.333l-2.167,0c-25.458,-7.208 -38.166,-13.917 -38.166,-20.167l-0.709,-3.583l0,-3.583c7.209,-24.959 13.209,-37.459 18,-37.459c1.917,-0.958 4.084,-1.666 6.5,-2.166c3.834,-0 15.584,4.333 35.292,12.958c2.417,2.417 4.542,6.75 6.5,12.958c8.625,5.75 16.583,8.625 23.75,8.625c2.875,-8.166 4.542,-12.25 5.042,-12.25l4.333,0c6.708,-21.125 12.25,-31.708 16.583,-31.708c0,-0.958 2.875,-1.667 8.625,-2.167c0,-0.458 0.709,-2.416 2.167,-5.75l-0.708,0c-9.625,0.5 -17.292,0.709 -23.042,0.709c-12.5,-0 -23.75,-6 -33.833,-18c-2.417,-4.334 -3.584,-9.834 -3.584,-16.584c0,-15.375 9.125,-25.666 27.375,-30.958l10.792,-2.167l46.083,3.584l13.667,-37.459c-4.333,-3.333 -6.5,-6.958 -6.5,-10.791l0,-3.584c0,-2.416 29.75,-84.75 89.292,-247.041c3.833,-4.792 7.916,-7.209 12.25,-7.209l-0,0.125Zm27.375,77.792c-36,100.375 -60.25,166.375 -72.75,198.042c-3.834,4.333 -7.459,6.5 -10.792,6.5l-3.583,-0c-6.25,16.833 -9.375,25.916 -9.375,27.375l0.708,-0c42.708,2.875 64.083,5.541 64.083,7.916l1.459,0c4.791,0 10.333,-3.125 16.583,-9.375l1.458,0c2.875,0 5.042,8.167 6.5,24.5c7.209,0.5 12.5,0.709 15.834,0.709l5.041,-0c16.792,-0 42,0.25 75.625,0.708l0,-0.708l-90.041,-255.667l-0.75,0Zm12.958,-25.917c0,8.167 5.042,13.209 15.125,15.125c10.083,-1.916 15.125,-6.708 15.125,-14.416l0,-2.875c0,-8.167 -5.042,-12.959 -15.125,-14.417l-0.708,0c-8.167,0 -12.959,5.542 -14.417,16.583Z" style="fill-rule:nonzero;"/></svg>